<svg class="svg-icon" style="width: 1em; height: 1em;vertical-align: middle;fill: white;overflow: hidden;" viewBox="0 0 1024 1024" version="1.1" xmlns="http://www.w3.org/2000/svg"><path d="M830.3616 193.6384c-91.8528-91.8528-214.016-142.4384-343.9616-142.4384s-252.0576 50.5856-343.9616 142.4384-142.4384 214.016-142.4384 343.9104 50.5856 252.0576 142.4384 343.9616 214.016 142.4384 343.9616 142.4384 252.0576-50.5856 343.9616-142.4384 142.4384-214.016 142.4384-343.9616-50.5856-252.0576-142.4384-343.9104zM486.4 972.8c-239.9744 0-435.2-195.2256-435.2-435.2s195.2256-435.2 435.2-435.2c239.9744 0 435.2 195.2256 435.2 435.2s-195.2256 435.2-435.2 435.2z"  /><path d="M793.6 512l-281.6 0 0-281.6c0-14.1312-11.4688-25.6-25.6-25.6s-25.6 11.4688-25.6 25.6l0 281.6-281.6 0c-14.1312 0-25.6 11.4688-25.6 25.6s11.4688 25.6 25.6 25.6l281.6 0 0 281.6c0 14.1312 11.4688 25.6 25.6 25.6s25.6-11.4688 25.6-25.6l0-281.6 281.6 0c14.1312 0 25.6-11.4688 25.6-25.6s-11.4688-25.6-25.6-25.6z"  /></svg>